<svg width="450" height="450" viewBox="0 0 450 450" fill="none" xmlns="http://www.w3.org/2000/svg">
<path d="M449.879 197.321C449.88 192.468 447.391 187.791 442.943 185.85C374.32 155.894 199.68 266.296 182.631 156.734C180.766 144.756 185.353 132.66 192.567 122.917C221.184 84.2702 279.624 13.3521 442.122 46.8291C444.14 47.245 445.476 44.8302 443.847 43.5681C383.284 -3.34898 224.587 -35.0586 109.684 71.7165C89.3595 130.776 80.2606 218.657 133.067 262.354C133.278 261.864 133.492 261.373 133.708 260.879C134.65 258.726 137.615 258.478 139.069 260.325C144.671 267.439 151.737 273.463 160.076 278.344C196.689 293.313 251.304 294.045 330.637 270.865C334.882 281.225 333.846 296.515 318.654 306.085C290.851 341.839 229.207 391.531 89.7424 439.026C221.058 482.207 449.858 381.123 449.879 197.321Z" fill="#4DA9FF"/>
<path d="M109.684 71.7165C78.18 100.992 48.495 142.761 26.2614 197.471C-30.878 338.075 12.0115 413.466 89.7424 439.026C229.207 391.531 290.851 341.839 318.654 306.085C315.146 312.351 307.023 318.121 299.684 323.402C227.135 374.603 69.9026 408.852 133.067 262.354C80.2606 218.657 89.3595 130.776 109.684 71.7165Z" fill="#007BED"/>
<path d="M330.637 270.865C334.882 281.225 333.846 296.515 318.654 306.085C324.397 298.699 331.759 289.416 330.637 270.865Z" fill="#4DA9FF"/>
<path d="M139.069 260.325C137.615 258.478 134.65 258.726 133.708 260.879C133.492 261.373 133.278 261.864 133.067 262.354C140.719 268.686 149.67 274.09 160.076 278.344C151.737 273.463 144.671 267.439 139.069 260.325Z" fill="#4DA9FF"/>
<path d="M449.033 217.948C450.712 200.231 440.85 182.805 423.142 181.043C343.565 173.123 190.844 261.185 181.824 148.822C181.265 141.851 183.817 134.991 187.968 129.363C214.841 92.9384 270.265 11.4387 442.242 46.8686C444.26 47.2844 445.596 44.8696 443.967 43.6076C383.404 -3.30952 224.707 -35.0192 109.804 71.7559C89.4797 130.815 80.3807 218.697 133.187 262.393C133.398 261.904 133.612 261.412 133.828 260.919C134.77 258.765 137.735 258.518 139.189 260.364C144.791 267.479 151.858 273.502 160.196 278.383C196.809 293.352 251.424 294.085 330.757 270.905C335.002 281.265 334.364 295.423 318.774 307.216C295.513 342.931 230.364 392.663 90.8986 440.158C217.227 481.699 432.845 388.741 449.033 217.948Z" fill="#4DA9FF"/>
</svg>
